<svg class="svg svg--logo">
    <g class="logo-big">
        <polygon points="19.9,60.3 16.2,18.7 12.2,18.7 7.9,60.3 5.3,18.7 0,18.7 4.8,77.5 9.7,77.5 13.6,40.5 16.9,77.5 21.8,77.5
    		28,18.7 23.2,18.7 	"/>
    	<path d="M41,17.9c-4.8,0-8.8,4.2-8.8,10v40.2c0,6,4,10,8.8,10s8.8-4,8.8-10V28C49.8,22.1,45.8,17.9,41,17.9z M44.4,69.3
    		c0,0.2,0,0.2,0,0.3c0,1.9-1.5,3.2-3.4,3.2c-0.2,0-0.3,0-0.5,0c-1.9-0.2-3.1-1.7-2.9-3.6V27.1c0-0.2,0-0.2,0-0.3
    		c0-1.9,1.5-3.4,3.4-3.2h0.2c1.9,0.2,3.4,1.7,3.2,3.6V69.3z"/>
    	<path d="M73.1,72.3V56.4c0-3.4-1.1-6-3.9-7.3c2.8-1.2,3.6-3.9,3.6-7.4V28c0-7.4-4.3-9.3-7.7-9.3h-9v58.9h5.4V51.5h3.2
    		c1.9,0,3.1,1.5,3.1,3.9v17.2c0,4.3,1.4,5.4,4.5,5.4h1.9v-3.2C73.3,74.7,73.1,73.9,73.1,72.3z M67.7,42.5c0,2.3-1.2,3.9-2.9,3.9
    		h-3.1V24.1h3.6c1.5,0,2.6,0.9,2.6,3.4L67.7,42.5z"/>
    	<path d="M88.4,18.7h-8.8v58.9h8.8c5.9,0,8.3-3.7,8.3-11.6V30.3C96.8,22.4,94.5,18.7,88.4,18.7z M91.5,66.9c0,3.7-0.9,5.1-3.1,5.1
    		H85V24.1h3.4c2.3,0,3.1,1.4,3.1,5.3V66.9z"/>
    	<path d="M107.8,27.7c0-3.1,1.4-4.6,3.7-4.6c2,0,2.9,1.7,2.9,5.3v8.3h4.9v-8.5c0-6-3.1-10-7.9-10c-6.3,0-9,4.8-9,11.6
    		c0,6,3.9,15,6.6,20.9c3.2,6.6,5.3,12.1,5.3,18.1c0,3.2-1.1,5.1-3.9,5.1c-2,0-3.4-2.2-3.4-5.1v-8.3H102v7.9c0,5.9,3.2,10,8.8,10
    		c3.6,0,8.7-2.2,8.8-11.4c0-6.2-2.8-13-6.2-20.1C109.8,39.1,107.8,34.5,107.8,27.7z"/>
    	<path d="M145.8,49.9h-0.2c0,2.8-1.2,4.2-3.4,4.2c-2.2,0-3.2-1.4-3.2-4.2V0h-5.3v49.5c0,6,3.6,10,8.5,10c4.8,0,8.5-4,8.5-10V0h-4.9
    		V49.9z"/>
    	<path d="M167.1,18.7h-8.8v58.9h5.3V51.9h3.6c3.4,0,7.9-1.9,7.9-9.3V27.8C175,20.4,170.5,18.7,167.1,18.7z M169.6,43.4
    		c0,2.3-0.9,3.4-2.5,3.4h-3.6V24.1h3.6c1.5,0,2.5,0.9,2.5,3.4V43.4z"/>
    	<path d="M142.5,69.4c-2.2,0-4,1.8-4,4s1.8,4,4,4c2.2,0,4-1.8,4-4S144.8,69.4,142.5,69.4z"/>
    </g>
    <g class="logo-mid">
    	<polygon points="12.9,39 10.5,12.1 7.9,12.1 5.1,39 3.4,12.1 0,12.1 3.1,50.1 6.3,50.1 8.8,26.2 10.9,50.1 14.1,50.1 18.1,12.1
    		15,12.1 	"/>
    	<path d="M26.5,11.6c-3.1,0-5.7,2.7-5.7,6.5v26c0,3.9,2.6,6.5,5.7,6.5c3.1,0,5.7-2.6,5.7-6.5v-26C32.2,14.3,29.6,11.6,26.5,11.6z
    		 M26.5,47.1c-0.1,0-0.2,0-0.3,0C25,47,24.2,46,24.3,44.8V17.5c0-0.1,0-0.1,0-0.2c0-1.2,1-2.2,2.2-2.1c0,0,0.1,0,0.1,0
    		c1.2,0.1,2.2,1.1,2.1,2.3v27.3c0,0.1,0,0.1,0,0.2C28.7,46.2,27.7,47.1,26.5,47.1z"/>
    	<path d="M47.3,46.8V36.5c0-2.2-0.7-3.9-2.5-4.7c1.8-0.8,2.3-2.5,2.3-4.8v-8.9c0-4.8-2.8-6-5-6h-5.8v38.1h3.5V33.3h2.1
    		c1.2,0,2,1,2,2.5v11.1c0,2.8,0.9,3.5,2.9,3.5H48v-2.1C47.4,48.3,47.3,47.8,47.3,46.8z M43.8,27.5c0,1.5-0.8,2.5-1.9,2.5h-2V15.6
    		h2.3c1,0,1.7,0.6,1.7,2.2L43.8,27.5z"/>
    	<path d="M57.2,12.1h-5.7v38.1h5.7c3.8,0,5.4-2.4,5.4-7.5V19.6C62.6,14.5,61.1,12.1,57.2,12.1z M59.2,43.3c0,2.4-0.6,3.3-2,3.3H55
    		V15.6h2.2c1.5,0,2,0.9,2,3.4L59.2,43.3z"/>
    	<path d="M69.7,17.9c0-2,0.9-3,2.4-3c1.3,0,1.9,1.1,1.9,3.4v5.4h3.2v-5.5c0-3.9-2-6.5-5.1-6.5c-4.1,0-5.8,3.1-5.8,7.5
    		c0,3.9,2.5,9.7,4.3,13.5c2.1,4.3,3.4,7.8,3.4,11.7c0,2.1-0.7,3.3-2.5,3.3c-1.3,0-2.2-1.4-2.2-3.3V39H66v5.1c0,3.8,2.1,6.5,5.7,6.5
    		c2.3,0,5.6-1.4,5.7-7.4c0-4-1.8-8.4-4-13C71,25.3,69.7,22.3,69.7,17.9z"/>
    	<path d="M94.2,32.3c0,1.8-0.8,2.7-2.2,2.7c-1.4,0-2.1-0.9-2.1-2.7V0h-3.4v32c0,3.9,2.3,6.5,5.5,6.5c3.1,0,5.5-2.6,5.5-6.5V0h-3.2
    		V32.3z"/>
    	<path d="M108.1,12.1h-5.7v38.1h3.4V33.6h2.3c2.2,0,5.1-1.2,5.1-6v-9.6C113.2,13.2,110.3,12.1,108.1,12.1z M109.7,28.1
    		c0,1.5-0.6,2.2-1.6,2.2h-2.3V15.6h2.3c1,0,1.6,0.6,1.6,2.2V28.1z"/>
    	<circle cx="92.2" cy="47.5" r="2.6"/>
    </g>
</svg>
